<mxfile host="app.diagrams.net" agent="Mozilla/5.0 (Windows NT 10.0; Win64; x64) AppleWebKit/537.36 (KHTML, like Gecko) Chrome/131.0.0.0 Safari/537.36" version="25.0.1">
  <diagram name="PÃ¡gina-1" id="8p2t1sqDA48cGPJaIhjd">
    <mxGraphModel dx="2087" dy="1318" grid="1" gridSize="10" guides="1" tooltips="1" connect="1" arrows="1" fold="1" page="0" pageScale="1" pageWidth="827" pageHeight="1169" math="0" shadow="0">
      <root>
        <mxCell id="0" />
        <mxCell id="1" parent="0" />
        <mxCell id="SlNrmb2mb2ixUGoI90xO-1" value=":InterfaceUsuario" style="rounded=0;whiteSpace=wrap;html=1;" parent="1" vertex="1">
          <mxGeometry x="175" y="-38.5" width="130" height="40" as="geometry" />
        </mxCell>
        <mxCell id="SlNrmb2mb2ixUGoI90xO-6" value="" style="endArrow=none;dashed=1;html=1;rounded=0;entryX=0.5;entryY=1;entryDx=0;entryDy=0;" parent="1" target="SlNrmb2mb2ixUGoI90xO-1" edge="1">
          <mxGeometry width="50" height="50" relative="1" as="geometry">
            <mxPoint x="240" y="960" as="sourcePoint" />
            <mxPoint x="240" y="80" as="targetPoint" />
          </mxGeometry>
        </mxCell>
        <mxCell id="SlNrmb2mb2ixUGoI90xO-7" value="" style="endArrow=classic;html=1;rounded=0;" parent="1" edge="1">
          <mxGeometry width="50" height="50" relative="1" as="geometry">
            <mxPoint x="-36" y="80" as="sourcePoint" />
            <mxPoint x="234" y="80" as="targetPoint" />
          </mxGeometry>
        </mxCell>
        <mxCell id="SlNrmb2mb2ixUGoI90xO-8" value="&lt;u&gt;menuProduto()&lt;/u&gt;" style="text;html=1;align=center;verticalAlign=middle;whiteSpace=wrap;rounded=0;" parent="1" vertex="1">
          <mxGeometry x="64" y="56" width="60" height="30" as="geometry" />
        </mxCell>
        <mxCell id="SlNrmb2mb2ixUGoI90xO-9" value="" style="rounded=0;whiteSpace=wrap;html=1;" parent="1" vertex="1">
          <mxGeometry x="235" y="79" width="10" height="851" as="geometry" />
        </mxCell>
        <mxCell id="SlNrmb2mb2ixUGoI90xO-10" value=":ControladorVendas" style="rounded=0;whiteSpace=wrap;html=1;" parent="1" vertex="1">
          <mxGeometry x="359" y="-38.5" width="140" height="40" as="geometry" />
        </mxCell>
        <mxCell id="SlNrmb2mb2ixUGoI90xO-11" value="" style="endArrow=none;dashed=1;html=1;rounded=0;" parent="1" edge="1">
          <mxGeometry width="50" height="50" relative="1" as="geometry">
            <mxPoint x="430" y="930" as="sourcePoint" />
            <mxPoint x="430" y="1.5" as="targetPoint" />
          </mxGeometry>
        </mxCell>
        <mxCell id="SlNrmb2mb2ixUGoI90xO-12" value="" style="endArrow=classic;html=1;rounded=0;entryX=0;entryY=0;entryDx=0;entryDy=0;" parent="1" target="SlNrmb2mb2ixUGoI90xO-14" edge="1">
          <mxGeometry width="50" height="50" relative="1" as="geometry">
            <mxPoint x="245" y="120.5" as="sourcePoint" />
            <mxPoint x="515" y="120.5" as="targetPoint" />
          </mxGeometry>
        </mxCell>
        <mxCell id="SlNrmb2mb2ixUGoI90xO-13" value="&lt;u&gt;cadastrarProduto(&lt;/u&gt;&lt;u style=&quot;background-color: initial;&quot;&gt;)&lt;/u&gt;" style="text;html=1;align=center;verticalAlign=middle;whiteSpace=wrap;rounded=0;" parent="1" vertex="1">
          <mxGeometry x="175" y="95.5" width="314" height="30" as="geometry" />
        </mxCell>
        <mxCell id="SlNrmb2mb2ixUGoI90xO-14" value="" style="rounded=0;whiteSpace=wrap;html=1;" parent="1" vertex="1">
          <mxGeometry x="425" y="120" width="8" height="790" as="geometry" />
        </mxCell>
        <mxCell id="SlNrmb2mb2ixUGoI90xO-16" value=":BancoDeDados" style="rounded=0;whiteSpace=wrap;html=1;" parent="1" vertex="1">
          <mxGeometry x="645" y="-38.5" width="130" height="40" as="geometry" />
        </mxCell>
        <mxCell id="SlNrmb2mb2ixUGoI90xO-18" value="" style="endArrow=none;dashed=1;html=1;rounded=0;" parent="1" edge="1">
          <mxGeometry width="50" height="50" relative="1" as="geometry">
            <mxPoint x="715" y="880" as="sourcePoint" />
            <mxPoint x="715" y="1.5" as="targetPoint" />
          </mxGeometry>
        </mxCell>
        <mxCell id="SlNrmb2mb2ixUGoI90xO-17" value="" style="rounded=0;whiteSpace=wrap;html=1;" parent="1" vertex="1">
          <mxGeometry x="710" y="280" width="8" height="580" as="geometry" />
        </mxCell>
        <mxCell id="SlNrmb2mb2ixUGoI90xO-20" value="" style="endArrow=classic;html=1;rounded=0;entryX=0;entryY=0;entryDx=0;entryDy=0;exitX=0.625;exitY=0.204;exitDx=0;exitDy=0;exitPerimeter=0;" parent="1" source="SlNrmb2mb2ixUGoI90xO-14" target="SlNrmb2mb2ixUGoI90xO-17" edge="1">
          <mxGeometry width="50" height="50" relative="1" as="geometry">
            <mxPoint x="778" y="283.2262773722655" as="sourcePoint" />
            <mxPoint x="705" y="210" as="targetPoint" />
          </mxGeometry>
        </mxCell>
        <mxCell id="SlNrmb2mb2ixUGoI90xO-27" value="input():&amp;nbsp;&lt;u style=&quot;line-height: 140%;&quot;&gt;nome: String, preco: Real,&amp;nbsp;&lt;/u&gt;&lt;div style=&quot;line-height: 140%;&quot;&gt;&lt;u style=&quot;background-color: initial;&quot;&gt;descricao: String, quantidade: Inteiro&lt;/u&gt;&lt;br&gt;&lt;/div&gt;" style="text;html=1;align=center;verticalAlign=middle;whiteSpace=wrap;rounded=0;" parent="1" vertex="1">
          <mxGeometry x="494" y="128" width="200" height="30" as="geometry" />
        </mxCell>
        <mxCell id="SlNrmb2mb2ixUGoI90xO-29" value="" style="endArrow=classic;html=1;rounded=0;entryX=1;entryY=0;entryDx=0;entryDy=0;" parent="1" target="SlNrmb2mb2ixUGoI90xO-30" edge="1">
          <mxGeometry width="50" height="50" relative="1" as="geometry">
            <mxPoint x="435" y="130" as="sourcePoint" />
            <mxPoint x="450" y="160" as="targetPoint" />
            <Array as="points">
              <mxPoint x="490" y="130" />
              <mxPoint x="490" y="156" />
            </Array>
          </mxGeometry>
        </mxCell>
        <mxCell id="SlNrmb2mb2ixUGoI90xO-30" value="" style="rounded=0;whiteSpace=wrap;html=1;" parent="1" vertex="1">
          <mxGeometry x="429" y="156" width="11" height="25.5" as="geometry" />
        </mxCell>
        <mxCell id="SlNrmb2mb2ixUGoI90xO-31" value="novoProduto:Produto" style="rounded=0;whiteSpace=wrap;html=1;" parent="1" vertex="1">
          <mxGeometry x="840" y="280" width="130" height="40" as="geometry" />
        </mxCell>
        <mxCell id="SlNrmb2mb2ixUGoI90xO-32" value="" style="endArrow=open;dashed=1;html=1;rounded=0;entryX=-0.003;entryY=0.591;entryDx=0;entryDy=0;endFill=0;entryPerimeter=0;" parent="1" target="SlNrmb2mb2ixUGoI90xO-31" edge="1">
          <mxGeometry width="50" height="50" relative="1" as="geometry">
            <mxPoint x="718" y="302.5" as="sourcePoint" />
            <mxPoint x="768" y="252.5" as="targetPoint" />
          </mxGeometry>
        </mxCell>
        <mxCell id="SlNrmb2mb2ixUGoI90xO-33" value="Produto()" style="text;html=1;align=center;verticalAlign=middle;whiteSpace=wrap;rounded=0;" parent="1" vertex="1">
          <mxGeometry x="748" y="280" width="60" height="30" as="geometry" />
        </mxCell>
        <mxCell id="SlNrmb2mb2ixUGoI90xO-34" value="" style="endArrow=none;dashed=1;html=1;rounded=0;" parent="1" edge="1">
          <mxGeometry width="50" height="50" relative="1" as="geometry">
            <mxPoint x="904" y="888" as="sourcePoint" />
            <mxPoint x="904.76" y="318" as="targetPoint" />
          </mxGeometry>
        </mxCell>
        <mxCell id="SlNrmb2mb2ixUGoI90xO-35" value="" style="rounded=0;whiteSpace=wrap;html=1;" parent="1" vertex="1">
          <mxGeometry x="900" y="360" width="10" height="40" as="geometry" />
        </mxCell>
        <mxCell id="SlNrmb2mb2ixUGoI90xO-36" value="" style="endArrow=classic;html=1;rounded=0;entryX=0;entryY=0;entryDx=0;entryDy=0;" parent="1" target="SlNrmb2mb2ixUGoI90xO-35" edge="1">
          <mxGeometry width="50" height="50" relative="1" as="geometry">
            <mxPoint x="720" y="360" as="sourcePoint" />
            <mxPoint x="850" y="380" as="targetPoint" />
          </mxGeometry>
        </mxCell>
        <mxCell id="SlNrmb2mb2ixUGoI90xO-37" value="atribuiNome(nome)" style="text;html=1;align=center;verticalAlign=middle;whiteSpace=wrap;rounded=0;" parent="1" vertex="1">
          <mxGeometry x="778" y="339" width="60" height="30" as="geometry" />
        </mxCell>
        <mxCell id="SlNrmb2mb2ixUGoI90xO-38" value="" style="endArrow=none;dashed=1;html=1;rounded=0;entryX=-0.003;entryY=0.591;entryDx=0;entryDy=0;endFill=0;entryPerimeter=0;startArrow=open;startFill=0;" parent="1" edge="1">
          <mxGeometry width="50" height="50" relative="1" as="geometry">
            <mxPoint x="720" y="400" as="sourcePoint" />
            <mxPoint x="900" y="400" as="targetPoint" />
          </mxGeometry>
        </mxCell>
        <mxCell id="SlNrmb2mb2ixUGoI90xO-39" value="" style="rounded=0;whiteSpace=wrap;html=1;" parent="1" vertex="1">
          <mxGeometry x="898" y="439.8" width="10" height="40" as="geometry" />
        </mxCell>
        <mxCell id="SlNrmb2mb2ixUGoI90xO-40" value="" style="endArrow=classic;html=1;rounded=0;entryX=0;entryY=0;entryDx=0;entryDy=0;" parent="1" target="SlNrmb2mb2ixUGoI90xO-39" edge="1">
          <mxGeometry width="50" height="50" relative="1" as="geometry">
            <mxPoint x="718" y="439.8" as="sourcePoint" />
            <mxPoint x="848" y="459.8" as="targetPoint" />
          </mxGeometry>
        </mxCell>
        <mxCell id="SlNrmb2mb2ixUGoI90xO-41" value="" style="endArrow=none;dashed=1;html=1;rounded=0;entryX=-0.003;entryY=0.591;entryDx=0;entryDy=0;endFill=0;entryPerimeter=0;startArrow=open;startFill=0;" parent="1" edge="1">
          <mxGeometry width="50" height="50" relative="1" as="geometry">
            <mxPoint x="718" y="479.8" as="sourcePoint" />
            <mxPoint x="898" y="479.8" as="targetPoint" />
          </mxGeometry>
        </mxCell>
        <mxCell id="SlNrmb2mb2ixUGoI90xO-45" value="" style="rounded=0;whiteSpace=wrap;html=1;" parent="1" vertex="1">
          <mxGeometry x="898" y="510" width="10" height="40" as="geometry" />
        </mxCell>
        <mxCell id="SlNrmb2mb2ixUGoI90xO-46" value="" style="endArrow=classic;html=1;rounded=0;entryX=0;entryY=0;entryDx=0;entryDy=0;" parent="1" target="SlNrmb2mb2ixUGoI90xO-45" edge="1">
          <mxGeometry width="50" height="50" relative="1" as="geometry">
            <mxPoint x="718" y="510" as="sourcePoint" />
            <mxPoint x="848" y="530" as="targetPoint" />
          </mxGeometry>
        </mxCell>
        <mxCell id="SlNrmb2mb2ixUGoI90xO-47" value="" style="endArrow=none;dashed=1;html=1;rounded=0;entryX=-0.003;entryY=0.591;entryDx=0;entryDy=0;endFill=0;entryPerimeter=0;startArrow=open;startFill=0;" parent="1" edge="1">
          <mxGeometry width="50" height="50" relative="1" as="geometry">
            <mxPoint x="718" y="550" as="sourcePoint" />
            <mxPoint x="898" y="550" as="targetPoint" />
          </mxGeometry>
        </mxCell>
        <mxCell id="SlNrmb2mb2ixUGoI90xO-48" value="" style="rounded=0;whiteSpace=wrap;html=1;" parent="1" vertex="1">
          <mxGeometry x="900" y="580" width="10" height="40" as="geometry" />
        </mxCell>
        <mxCell id="SlNrmb2mb2ixUGoI90xO-49" value="" style="endArrow=classic;html=1;rounded=0;entryX=0;entryY=0;entryDx=0;entryDy=0;" parent="1" target="SlNrmb2mb2ixUGoI90xO-48" edge="1">
          <mxGeometry width="50" height="50" relative="1" as="geometry">
            <mxPoint x="720" y="580" as="sourcePoint" />
            <mxPoint x="850" y="600" as="targetPoint" />
          </mxGeometry>
        </mxCell>
        <mxCell id="SlNrmb2mb2ixUGoI90xO-50" value="" style="endArrow=none;dashed=1;html=1;rounded=0;entryX=-0.003;entryY=0.591;entryDx=0;entryDy=0;endFill=0;entryPerimeter=0;startArrow=open;startFill=0;" parent="1" edge="1">
          <mxGeometry width="50" height="50" relative="1" as="geometry">
            <mxPoint x="720" y="620" as="sourcePoint" />
            <mxPoint x="900" y="620" as="targetPoint" />
          </mxGeometry>
        </mxCell>
        <mxCell id="SlNrmb2mb2ixUGoI90xO-51" value="" style="rounded=0;whiteSpace=wrap;html=1;" parent="1" vertex="1">
          <mxGeometry x="900" y="650" width="10" height="40" as="geometry" />
        </mxCell>
        <mxCell id="SlNrmb2mb2ixUGoI90xO-52" value="" style="endArrow=classic;html=1;rounded=0;entryX=0;entryY=0;entryDx=0;entryDy=0;" parent="1" target="SlNrmb2mb2ixUGoI90xO-51" edge="1">
          <mxGeometry width="50" height="50" relative="1" as="geometry">
            <mxPoint x="720" y="650" as="sourcePoint" />
            <mxPoint x="850" y="670" as="targetPoint" />
          </mxGeometry>
        </mxCell>
        <mxCell id="SlNrmb2mb2ixUGoI90xO-53" value="" style="endArrow=none;dashed=1;html=1;rounded=0;entryX=-0.003;entryY=0.591;entryDx=0;entryDy=0;endFill=0;entryPerimeter=0;startArrow=open;startFill=0;" parent="1" edge="1">
          <mxGeometry width="50" height="50" relative="1" as="geometry">
            <mxPoint x="720" y="690" as="sourcePoint" />
            <mxPoint x="900" y="690" as="targetPoint" />
          </mxGeometry>
        </mxCell>
        <mxCell id="SlNrmb2mb2ixUGoI90xO-54" value="atribuiPreco(preco)" style="text;html=1;align=center;verticalAlign=middle;whiteSpace=wrap;rounded=0;" parent="1" vertex="1">
          <mxGeometry x="778" y="420" width="60" height="30" as="geometry" />
        </mxCell>
        <mxCell id="SlNrmb2mb2ixUGoI90xO-59" value="atribuiDescricao(descricao)" style="text;html=1;align=center;verticalAlign=middle;whiteSpace=wrap;rounded=0;" parent="1" vertex="1">
          <mxGeometry x="780" y="490" width="60" height="30" as="geometry" />
        </mxCell>
        <mxCell id="SlNrmb2mb2ixUGoI90xO-60" value="atribuiQuantidade(quantidade)" style="text;html=1;align=center;verticalAlign=middle;whiteSpace=wrap;rounded=0;" parent="1" vertex="1">
          <mxGeometry x="780" y="560" width="60" height="30" as="geometry" />
        </mxCell>
        <mxCell id="SlNrmb2mb2ixUGoI90xO-61" value="atribuiID()" style="text;html=1;align=center;verticalAlign=middle;whiteSpace=wrap;rounded=0;" parent="1" vertex="1">
          <mxGeometry x="780" y="630" width="60" height="30" as="geometry" />
        </mxCell>
        <mxCell id="SlNrmb2mb2ixUGoI90xO-63" value="&lt;u&gt;vendas&lt;/u&gt;:list" style="rounded=0;whiteSpace=wrap;html=1;" parent="1" vertex="1">
          <mxGeometry x="970" y="-38.5" width="130" height="40" as="geometry" />
        </mxCell>
        <mxCell id="SlNrmb2mb2ixUGoI90xO-64" value="" style="endArrow=none;dashed=1;html=1;rounded=0;" parent="1" source="SlNrmb2mb2ixUGoI90xO-65" edge="1">
          <mxGeometry width="50" height="50" relative="1" as="geometry">
            <mxPoint x="1040" y="880" as="sourcePoint" />
            <mxPoint x="1040" y="1.5" as="targetPoint" />
          </mxGeometry>
        </mxCell>
        <mxCell id="SlNrmb2mb2ixUGoI90xO-66" value="" style="endArrow=none;dashed=1;html=1;rounded=0;" parent="1" target="SlNrmb2mb2ixUGoI90xO-65" edge="1">
          <mxGeometry width="50" height="50" relative="1" as="geometry">
            <mxPoint x="1040" y="880" as="sourcePoint" />
            <mxPoint x="1040" y="1.5" as="targetPoint" />
          </mxGeometry>
        </mxCell>
        <mxCell id="SlNrmb2mb2ixUGoI90xO-65" value="" style="rounded=0;whiteSpace=wrap;html=1;" parent="1" vertex="1">
          <mxGeometry x="1038" y="753" width="11" height="47" as="geometry" />
        </mxCell>
        <mxCell id="SlNrmb2mb2ixUGoI90xO-67" value="" style="endArrow=classic;html=1;rounded=0;entryX=0;entryY=0;entryDx=0;entryDy=0;" parent="1" target="SlNrmb2mb2ixUGoI90xO-65" edge="1">
          <mxGeometry width="50" height="50" relative="1" as="geometry">
            <mxPoint x="718" y="753" as="sourcePoint" />
            <mxPoint x="898" y="753" as="targetPoint" />
          </mxGeometry>
        </mxCell>
        <mxCell id="SlNrmb2mb2ixUGoI90xO-68" value="append(novoProduto)" style="text;html=1;align=center;verticalAlign=middle;whiteSpace=wrap;rounded=0;" parent="1" vertex="1">
          <mxGeometry x="861" y="730" width="60" height="30" as="geometry" />
        </mxCell>
        <mxCell id="SlNrmb2mb2ixUGoI90xO-70" value="" style="endArrow=none;dashed=1;html=1;rounded=0;entryX=0;entryY=1;entryDx=0;entryDy=0;endFill=0;startArrow=open;startFill=0;" parent="1" target="SlNrmb2mb2ixUGoI90xO-65" edge="1">
          <mxGeometry width="50" height="50" relative="1" as="geometry">
            <mxPoint x="720" y="800" as="sourcePoint" />
            <mxPoint x="1038" y="778.5" as="targetPoint" />
          </mxGeometry>
        </mxCell>
        <mxCell id="SlNrmb2mb2ixUGoI90xO-71" value="&lt;u style=&quot;line-height: 160%;&quot;&gt;adicionaProduto(&lt;/u&gt;&lt;u style=&quot;line-height: 160%;&quot;&gt;nome: String, preco: Real,&amp;nbsp;&lt;/u&gt;&lt;div style=&quot;line-height: 160%;&quot;&gt;&lt;u style=&quot;background-color: initial;&quot;&gt;descricao: String, quantidade: Inteiro&lt;/u&gt;&lt;u style=&quot;background-color: initial;&quot;&gt;)&lt;/u&gt;&lt;br&gt;&lt;/div&gt;" style="text;html=1;align=center;verticalAlign=middle;whiteSpace=wrap;rounded=0;" parent="1" vertex="1">
          <mxGeometry x="368" y="262.5" width="410" height="30" as="geometry" />
        </mxCell>
        <mxCell id="SlNrmb2mb2ixUGoI90xO-74" value="" style="endArrow=none;dashed=1;html=1;rounded=0;entryX=0;entryY=1;entryDx=0;entryDy=0;endFill=0;startArrow=open;startFill=0;exitX=1.122;exitY=0.937;exitDx=0;exitDy=0;exitPerimeter=0;" parent="1" source="SlNrmb2mb2ixUGoI90xO-14" edge="1">
          <mxGeometry width="50" height="50" relative="1" as="geometry">
            <mxPoint x="440" y="860" as="sourcePoint" />
            <mxPoint x="718" y="860" as="targetPoint" />
          </mxGeometry>
        </mxCell>
        <mxCell id="SlNrmb2mb2ixUGoI90xO-75" value="" style="endArrow=none;dashed=1;html=1;rounded=0;endFill=0;startArrow=open;startFill=0;exitX=1.122;exitY=0.937;exitDx=0;exitDy=0;exitPerimeter=0;entryX=0;entryY=1;entryDx=0;entryDy=0;" parent="1" target="SlNrmb2mb2ixUGoI90xO-14" edge="1">
          <mxGeometry width="50" height="50" relative="1" as="geometry">
            <mxPoint x="245" y="910" as="sourcePoint" />
            <mxPoint x="420" y="910" as="targetPoint" />
          </mxGeometry>
        </mxCell>
        <mxCell id="SlNrmb2mb2ixUGoI90xO-76" value="" style="shape=umlDestroy;whiteSpace=wrap;html=1;strokeWidth=3;targetShapes=umlLifeline;" parent="1" vertex="1">
          <mxGeometry x="888" y="880" width="30" height="30" as="geometry" />
        </mxCell>
        <mxCell id="0YjvkzFQ54ltrkyTYip2-2" value="&lt;font style=&quot;font-size: 17px;&quot;&gt;&lt;b&gt;Diagrama de SequÃªncia de Registro de Produtos&lt;/b&gt;&lt;/font&gt;" style="text;html=1;align=center;verticalAlign=middle;whiteSpace=wrap;rounded=0;" vertex="1" parent="1">
          <mxGeometry x="359" y="-100" width="409" height="30" as="geometry" />
        </mxCell>
      </root>
    </mxGraphModel>
  </diagram>
</mxfile>
